<svg width="357" height="388" viewBox="0 0 357 388" fill="none" xmlns="http://www.w3.org/2000/svg">
<path d="M2 244.5L71 150L72 149.75L80 152.25V240.25H103.25L104.75 242.25L102.75 256L80 255.25C80.1667 263.75 80.4167 272.25 80.75 280.75C81.25 289.417 81.5833 295 81.75 297.5L80.5 299.25L62.75 302.25L61.25 300C61.4167 297.167 61.6667 291.417 62 282.75C62.3333 274.25 62.5833 264.917 62.75 254.75C37.0833 254.083 16.5 253.75 1 253.75L2 244.5ZM62.75 184.25H60.5L20.25 240.25H62.75V184.25ZM175.066 279C164.4 279 154.983 276.417 146.816 271.25C138.816 266.083 132.566 258.833 128.066 249.5C123.566 240.167 121.316 229.417 121.316 217.25C121.316 204.417 123.9 192.917 129.066 182.75C134.4 172.417 141.65 164.333 150.816 158.5C160.15 152.667 170.566 149.75 182.066 149.75C192.4 149.75 201.65 152.333 209.816 157.5C217.983 162.5 224.316 169.583 228.816 178.75C233.316 187.917 235.566 198.417 235.566 210.25C235.566 223.25 232.9 235 227.566 245.5C222.4 256 215.233 264.25 206.066 270.25C196.9 276.083 186.566 279 175.066 279ZM179.566 260C192.066 260 202.15 256.083 209.816 248.25C217.65 240.25 221.566 229.917 221.566 217.25C221.566 208.083 219.65 199.917 215.816 192.75C211.983 185.583 206.65 180 199.816 176C193.15 172 185.483 170 176.816 170C164.316 170 154.233 174 146.566 182C139.066 189.833 135.316 200.333 135.316 213.5C135.316 222.5 137.15 230.583 140.816 237.75C144.65 244.75 149.9 250.25 156.566 254.25C163.233 258.083 170.9 260 179.566 260ZM247.117 244.5L316.117 150L317.117 149.75L325.117 152.25V240.25H348.367L349.867 242.25L347.867 256L325.117 255.25C325.284 263.75 325.534 272.25 325.867 280.75C326.367 289.417 326.701 295 326.867 297.5L325.617 299.25L307.867 302.25L306.367 300C306.534 297.167 306.784 291.417 307.117 282.75C307.451 274.25 307.701 264.917 307.867 254.75C282.201 254.083 261.617 253.75 246.117 253.75L247.117 244.5ZM307.867 184.25H305.617L265.367 240.25H307.867V184.25Z" fill="#0D444D"/>
<path d="M18.0703 356.68C18.0703 357.794 17.8828 358.768 17.5078 359.602C17.1328 360.43 16.6016 361.062 15.9141 361.5C15.2266 361.938 14.4245 362.156 13.5078 362.156C12.612 362.156 11.8177 361.938 11.125 361.5C10.4323 361.057 9.89323 360.43 9.50781 359.617C9.1276 358.799 8.93229 357.854 8.92188 356.781V355.961C8.92188 354.867 9.11198 353.901 9.49219 353.062C9.8724 352.224 10.4089 351.583 11.1016 351.141C11.7995 350.693 12.5964 350.469 13.4922 350.469C14.4036 350.469 15.2057 350.69 15.8984 351.133C16.5964 351.57 17.1328 352.208 17.5078 353.047C17.8828 353.88 18.0703 354.852 18.0703 355.961V356.68ZM16.5781 355.945C16.5781 354.596 16.3073 353.562 15.7656 352.844C15.224 352.12 14.4661 351.758 13.4922 351.758C12.5443 351.758 11.7969 352.12 11.25 352.844C10.7083 353.562 10.4297 354.562 10.4141 355.844V356.68C10.4141 357.987 10.6875 359.016 11.2344 359.766C11.7865 360.51 12.5443 360.883 13.5078 360.883C14.4766 360.883 15.2266 360.531 15.7578 359.828C16.2891 359.12 16.5625 358.107 16.5781 356.789V355.945ZM19.7109 357.695C19.7109 356.867 19.8724 356.122 20.1953 355.461C20.5234 354.799 20.9766 354.289 21.5547 353.93C22.138 353.57 22.8021 353.391 23.5469 353.391C24.6979 353.391 25.6276 353.789 26.3359 354.586C27.0495 355.383 27.4062 356.443 27.4062 357.766V357.867C27.4062 358.69 27.2474 359.43 26.9297 360.086C26.6172 360.737 26.1667 361.245 25.5781 361.609C24.9948 361.974 24.3229 362.156 23.5625 362.156C22.4167 362.156 21.487 361.758 20.7734 360.961C20.0651 360.164 19.7109 359.109 19.7109 357.797V357.695ZM21.1641 357.867C21.1641 358.805 21.3802 359.557 21.8125 360.125C22.25 360.693 22.8333 360.977 23.5625 360.977C24.2969 360.977 24.8802 360.69 25.3125 360.117C25.7448 359.539 25.9609 358.732 25.9609 357.695C25.9609 356.768 25.7396 356.018 25.2969 355.445C24.8594 354.867 24.276 354.578 23.5469 354.578C22.8333 354.578 22.2578 354.862 21.8203 355.43C21.3828 355.997 21.1641 356.81 21.1641 357.867ZM36.3594 357.867C36.3594 359.154 36.0651 360.19 35.4766 360.977C34.888 361.763 34.0911 362.156 33.0859 362.156C32.0599 362.156 31.2526 361.831 30.6641 361.18V365.25H29.2188V353.547H30.5391L30.6094 354.484C31.1979 353.755 32.0156 353.391 33.0625 353.391C34.0781 353.391 34.8802 353.773 35.4688 354.539C36.0625 355.305 36.3594 356.37 36.3594 357.734V357.867ZM34.9141 357.703C34.9141 356.75 34.7109 355.997 34.3047 355.445C33.8984 354.893 33.3411 354.617 32.6328 354.617C31.7578 354.617 31.1016 355.005 30.6641 355.781V359.82C31.0964 360.591 31.7578 360.977 32.6484 360.977C33.3411 360.977 33.8906 360.703 34.2969 360.156C34.7083 359.604 34.9141 358.786 34.9141 357.703ZM43.125 359.758C43.125 359.367 42.9766 359.065 42.6797 358.852C42.388 358.633 41.875 358.445 41.1406 358.289C40.4115 358.133 39.8307 357.945 39.3984 357.727C38.9714 357.508 38.6536 357.247 38.4453 356.945C38.2422 356.643 38.1406 356.284 38.1406 355.867C38.1406 355.174 38.4323 354.589 39.0156 354.109C39.6042 353.63 40.3542 353.391 41.2656 353.391C42.224 353.391 43 353.638 43.5938 354.133C44.1927 354.628 44.4922 355.26 44.4922 356.031H43.0391C43.0391 355.635 42.8698 355.294 42.5312 355.008C42.1979 354.721 41.776 354.578 41.2656 354.578C40.7396 354.578 40.3281 354.693 40.0312 354.922C39.7344 355.151 39.5859 355.451 39.5859 355.82C39.5859 356.169 39.724 356.432 40 356.609C40.276 356.786 40.7734 356.956 41.4922 357.117C42.2161 357.279 42.8021 357.471 43.25 357.695C43.6979 357.919 44.0286 358.19 44.2422 358.508C44.4609 358.82 44.5703 359.203 44.5703 359.656C44.5703 360.411 44.2682 361.018 43.6641 361.477C43.0599 361.93 42.276 362.156 41.3125 362.156C40.6354 362.156 40.0365 362.036 39.5156 361.797C38.9948 361.557 38.5859 361.224 38.2891 360.797C37.9974 360.365 37.8516 359.898 37.8516 359.398H39.2969C39.3229 359.883 39.5156 360.268 39.875 360.555C40.2396 360.836 40.7188 360.977 41.3125 360.977C41.8594 360.977 42.2969 360.867 42.625 360.648C42.9583 360.424 43.125 360.128 43.125 359.758ZM46.4062 364.266L45.5859 363.703C46.0755 363.021 46.3307 362.318 46.3516 361.594V360.289H47.7656V361.422C47.7656 361.948 47.6354 362.474 47.375 363C47.1198 363.526 46.7969 363.948 46.4062 364.266ZM55.5234 351.5V353.547H57.1016V354.664H55.5234V359.906C55.5234 360.245 55.5938 360.5 55.7344 360.672C55.875 360.839 56.1146 360.922 56.4531 360.922C56.6198 360.922 56.849 360.891 57.1406 360.828V362C56.7604 362.104 56.3906 362.156 56.0312 362.156C55.3854 362.156 54.8984 361.961 54.5703 361.57C54.2422 361.18 54.0781 360.625 54.0781 359.906V354.664H52.5391V353.547H54.0781V351.5H55.5234ZM60.2422 354.57C60.8828 353.784 61.7161 353.391 62.7422 353.391C64.5286 353.391 65.4297 354.398 65.4453 356.414V362H64V356.406C63.9948 355.797 63.8542 355.346 63.5781 355.055C63.3073 354.763 62.8828 354.617 62.3047 354.617C61.8359 354.617 61.4245 354.742 61.0703 354.992C60.7161 355.242 60.4401 355.57 60.2422 355.977V362H58.7969V350H60.2422V354.57ZM71.1172 362.156C69.9714 362.156 69.0391 361.781 68.3203 361.031C67.6016 360.276 67.2422 359.268 67.2422 358.008V357.742C67.2422 356.904 67.401 356.156 67.7188 355.5C68.0417 354.839 68.4896 354.323 69.0625 353.953C69.6406 353.578 70.2656 353.391 70.9375 353.391C72.0365 353.391 72.8906 353.753 73.5 354.477C74.1094 355.201 74.4141 356.237 74.4141 357.586V358.188H68.6875C68.7083 359.021 68.9505 359.695 69.4141 360.211C69.8828 360.721 70.4766 360.977 71.1953 360.977C71.7057 360.977 72.138 360.872 72.4922 360.664C72.8464 360.456 73.1562 360.18 73.4219 359.836L74.3047 360.523C73.5964 361.612 72.5339 362.156 71.1172 362.156ZM70.9375 354.578C70.3542 354.578 69.8646 354.792 69.4688 355.219C69.0729 355.641 68.8281 356.234 68.7344 357H72.9688V356.891C72.9271 356.156 72.7292 355.589 72.375 355.188C72.0208 354.781 71.5417 354.578 70.9375 354.578ZM87.2031 357.867C87.2031 359.154 86.9089 360.19 86.3203 360.977C85.7318 361.763 84.9349 362.156 83.9297 362.156C82.9036 362.156 82.0964 361.831 81.5078 361.18V365.25H80.0625V353.547H81.3828L81.4531 354.484C82.0417 353.755 82.8594 353.391 83.9062 353.391C84.9219 353.391 85.724 353.773 86.3125 354.539C86.9062 355.305 87.2031 356.37 87.2031 357.734V357.867ZM85.7578 357.703C85.7578 356.75 85.5547 355.997 85.1484 355.445C84.7422 354.893 84.1849 354.617 83.4766 354.617C82.6016 354.617 81.9453 355.005 81.5078 355.781V359.82C81.9401 360.591 82.6016 360.977 83.4922 360.977C84.1849 360.977 84.7344 360.703 85.1406 360.156C85.5521 359.604 85.7578 358.786 85.7578 357.703ZM94.2656 362C94.1823 361.833 94.1146 361.536 94.0625 361.109C93.3906 361.807 92.5885 362.156 91.6562 362.156C90.8229 362.156 90.138 361.922 89.6016 361.453C89.0703 360.979 88.8047 360.38 88.8047 359.656C88.8047 358.776 89.138 358.094 89.8047 357.609C90.4766 357.12 91.4193 356.875 92.6328 356.875H94.0391V356.211C94.0391 355.706 93.888 355.305 93.5859 355.008C93.2839 354.706 92.8385 354.555 92.25 354.555C91.7344 354.555 91.3021 354.685 90.9531 354.945C90.6042 355.206 90.4297 355.521 90.4297 355.891H88.9766C88.9766 355.469 89.125 355.062 89.4219 354.672C89.724 354.276 90.1302 353.964 90.6406 353.734C91.1562 353.505 91.7214 353.391 92.3359 353.391C93.3099 353.391 94.0729 353.635 94.625 354.125C95.1771 354.609 95.4635 355.279 95.4844 356.133V360.023C95.4844 360.799 95.5833 361.417 95.7812 361.875V362H94.2656ZM91.8672 360.898C92.3203 360.898 92.75 360.781 93.1562 360.547C93.5625 360.312 93.8568 360.008 94.0391 359.633V357.898H92.9062C91.1354 357.898 90.25 358.417 90.25 359.453C90.25 359.906 90.401 360.26 90.7031 360.516C91.0052 360.771 91.3932 360.898 91.8672 360.898ZM97.4062 357.703C97.4062 356.385 97.7109 355.339 98.3203 354.562C98.9297 353.781 99.737 353.391 100.742 353.391C101.773 353.391 102.578 353.755 103.156 354.484L103.227 353.547H104.547V361.797C104.547 362.891 104.221 363.753 103.57 364.383C102.924 365.013 102.055 365.328 100.961 365.328C100.352 365.328 99.7552 365.198 99.1719 364.938C98.5885 364.677 98.1432 364.32 97.8359 363.867L98.5859 363C99.2057 363.766 99.9635 364.148 100.859 364.148C101.562 364.148 102.109 363.951 102.5 363.555C102.896 363.159 103.094 362.602 103.094 361.883V361.156C102.516 361.823 101.727 362.156 100.727 362.156C99.737 362.156 98.9349 361.758 98.3203 360.961C97.7109 360.164 97.4062 359.078 97.4062 357.703ZM98.8594 357.867C98.8594 358.82 99.0547 359.57 99.4453 360.117C99.8359 360.659 100.383 360.93 101.086 360.93C101.997 360.93 102.667 360.516 103.094 359.688V355.828C102.651 355.021 101.987 354.617 101.102 354.617C100.398 354.617 99.849 354.891 99.4531 355.438C99.0573 355.984 98.8594 356.794 98.8594 357.867ZM110.242 362.156C109.096 362.156 108.164 361.781 107.445 361.031C106.727 360.276 106.367 359.268 106.367 358.008V357.742C106.367 356.904 106.526 356.156 106.844 355.5C107.167 354.839 107.615 354.323 108.188 353.953C108.766 353.578 109.391 353.391 110.062 353.391C111.161 353.391 112.016 353.753 112.625 354.477C113.234 355.201 113.539 356.237 113.539 357.586V358.188H107.812C107.833 359.021 108.076 359.695 108.539 360.211C109.008 360.721 109.602 360.977 110.32 360.977C110.831 360.977 111.263 360.872 111.617 360.664C111.971 360.456 112.281 360.18 112.547 359.836L113.43 360.523C112.721 361.612 111.659 362.156 110.242 362.156ZM110.062 354.578C109.479 354.578 108.99 354.792 108.594 355.219C108.198 355.641 107.953 356.234 107.859 357H112.094V356.891C112.052 356.156 111.854 355.589 111.5 355.188C111.146 354.781 110.667 354.578 110.062 354.578ZM121.953 359.883L123.922 353.547H125.469L122.07 363.305C121.544 364.711 120.708 365.414 119.562 365.414L119.289 365.391L118.75 365.289V364.117L119.141 364.148C119.63 364.148 120.01 364.049 120.281 363.852C120.557 363.654 120.784 363.292 120.961 362.766L121.281 361.906L118.266 353.547H119.844L121.953 359.883ZM126.258 357.695C126.258 356.867 126.419 356.122 126.742 355.461C127.07 354.799 127.523 354.289 128.102 353.93C128.685 353.57 129.349 353.391 130.094 353.391C131.245 353.391 132.174 353.789 132.883 354.586C133.596 355.383 133.953 356.443 133.953 357.766V357.867C133.953 358.69 133.794 359.43 133.477 360.086C133.164 360.737 132.714 361.245 132.125 361.609C131.542 361.974 130.87 362.156 130.109 362.156C128.964 362.156 128.034 361.758 127.32 360.961C126.612 360.164 126.258 359.109 126.258 357.797V357.695ZM127.711 357.867C127.711 358.805 127.927 359.557 128.359 360.125C128.797 360.693 129.38 360.977 130.109 360.977C130.844 360.977 131.427 360.69 131.859 360.117C132.292 359.539 132.508 358.732 132.508 357.695C132.508 356.768 132.286 356.018 131.844 355.445C131.406 354.867 130.823 354.578 130.094 354.578C129.38 354.578 128.805 354.862 128.367 355.43C127.93 355.997 127.711 356.81 127.711 357.867ZM140.984 361.164C140.422 361.826 139.596 362.156 138.508 362.156C137.607 362.156 136.919 361.896 136.445 361.375C135.977 360.849 135.74 360.073 135.734 359.047V353.547H137.18V359.008C137.18 360.289 137.701 360.93 138.742 360.93C139.846 360.93 140.581 360.518 140.945 359.695V353.547H142.391V362H141.016L140.984 361.164ZM153.781 362C153.698 361.833 153.63 361.536 153.578 361.109C152.906 361.807 152.104 362.156 151.172 362.156C150.339 362.156 149.654 361.922 149.117 361.453C148.586 360.979 148.32 360.38 148.32 359.656C148.32 358.776 148.654 358.094 149.32 357.609C149.992 357.12 150.935 356.875 152.148 356.875H153.555V356.211C153.555 355.706 153.404 355.305 153.102 355.008C152.799 354.706 152.354 354.555 151.766 354.555C151.25 354.555 150.818 354.685 150.469 354.945C150.12 355.206 149.945 355.521 149.945 355.891H148.492C148.492 355.469 148.641 355.062 148.938 354.672C149.24 354.276 149.646 353.964 150.156 353.734C150.672 353.505 151.237 353.391 151.852 353.391C152.826 353.391 153.589 353.635 154.141 354.125C154.693 354.609 154.979 355.279 155 356.133V360.023C155 360.799 155.099 361.417 155.297 361.875V362H153.781ZM151.383 360.898C151.836 360.898 152.266 360.781 152.672 360.547C153.078 360.312 153.372 360.008 153.555 359.633V357.898H152.422C150.651 357.898 149.766 358.417 149.766 359.453C149.766 359.906 149.917 360.26 150.219 360.516C150.521 360.771 150.909 360.898 151.383 360.898ZM161.352 354.844C161.133 354.807 160.896 354.789 160.641 354.789C159.693 354.789 159.049 355.193 158.711 356V362H157.266V353.547H158.672L158.695 354.523C159.169 353.768 159.841 353.391 160.711 353.391C160.992 353.391 161.206 353.427 161.352 353.5V354.844ZM166.039 362.156C164.893 362.156 163.961 361.781 163.242 361.031C162.523 360.276 162.164 359.268 162.164 358.008V357.742C162.164 356.904 162.323 356.156 162.641 355.5C162.964 354.839 163.411 354.323 163.984 353.953C164.562 353.578 165.188 353.391 165.859 353.391C166.958 353.391 167.812 353.753 168.422 354.477C169.031 355.201 169.336 356.237 169.336 357.586V358.188H163.609C163.63 359.021 163.872 359.695 164.336 360.211C164.805 360.721 165.398 360.977 166.117 360.977C166.628 360.977 167.06 360.872 167.414 360.664C167.768 360.456 168.078 360.18 168.344 359.836L169.227 360.523C168.518 361.612 167.456 362.156 166.039 362.156ZM165.859 354.578C165.276 354.578 164.786 354.792 164.391 355.219C163.995 355.641 163.75 356.234 163.656 357H167.891V356.891C167.849 356.156 167.651 355.589 167.297 355.188C166.943 354.781 166.464 354.578 165.859 354.578ZM176.555 362H175.109V350H176.555V362ZM178.492 357.695C178.492 356.867 178.654 356.122 178.977 355.461C179.305 354.799 179.758 354.289 180.336 353.93C180.919 353.57 181.583 353.391 182.328 353.391C183.479 353.391 184.409 353.789 185.117 354.586C185.831 355.383 186.188 356.443 186.188 357.766V357.867C186.188 358.69 186.029 359.43 185.711 360.086C185.398 360.737 184.948 361.245 184.359 361.609C183.776 361.974 183.104 362.156 182.344 362.156C181.198 362.156 180.268 361.758 179.555 360.961C178.846 360.164 178.492 359.109 178.492 357.797V357.695ZM179.945 357.867C179.945 358.805 180.161 359.557 180.594 360.125C181.031 360.693 181.615 360.977 182.344 360.977C183.078 360.977 183.661 360.69 184.094 360.117C184.526 359.539 184.742 358.732 184.742 357.695C184.742 356.768 184.521 356.018 184.078 355.445C183.641 354.867 183.057 354.578 182.328 354.578C181.615 354.578 181.039 354.862 180.602 355.43C180.164 355.997 179.945 356.81 179.945 357.867ZM187.617 357.695C187.617 356.867 187.779 356.122 188.102 355.461C188.43 354.799 188.883 354.289 189.461 353.93C190.044 353.57 190.708 353.391 191.453 353.391C192.604 353.391 193.534 353.789 194.242 354.586C194.956 355.383 195.312 356.443 195.312 357.766V357.867C195.312 358.69 195.154 359.43 194.836 360.086C194.523 360.737 194.073 361.245 193.484 361.609C192.901 361.974 192.229 362.156 191.469 362.156C190.323 362.156 189.393 361.758 188.68 360.961C187.971 360.164 187.617 359.109 187.617 357.797V357.695ZM189.07 357.867C189.07 358.805 189.286 359.557 189.719 360.125C190.156 360.693 190.74 360.977 191.469 360.977C192.203 360.977 192.786 360.69 193.219 360.117C193.651 359.539 193.867 358.732 193.867 357.695C193.867 356.768 193.646 356.018 193.203 355.445C192.766 354.867 192.182 354.578 191.453 354.578C190.74 354.578 190.164 354.862 189.727 355.43C189.289 355.997 189.07 356.81 189.07 357.867ZM199.484 358.086L198.578 359.031V362H197.133V350H198.578V357.258L199.352 356.328L201.984 353.547H203.742L200.453 357.078L204.125 362H202.43L199.484 358.086ZM206.805 362H205.359V353.547H206.805V362ZM205.242 351.305C205.242 351.07 205.312 350.872 205.453 350.711C205.599 350.549 205.812 350.469 206.094 350.469C206.375 350.469 206.589 350.549 206.734 350.711C206.88 350.872 206.953 351.07 206.953 351.305C206.953 351.539 206.88 351.734 206.734 351.891C206.589 352.047 206.375 352.125 206.094 352.125C205.812 352.125 205.599 352.047 205.453 351.891C205.312 351.734 205.242 351.539 205.242 351.305ZM210.492 353.547L210.539 354.609C211.185 353.797 212.029 353.391 213.07 353.391C214.857 353.391 215.758 354.398 215.773 356.414V362H214.328V356.406C214.323 355.797 214.182 355.346 213.906 355.055C213.635 354.763 213.211 354.617 212.633 354.617C212.164 354.617 211.753 354.742 211.398 354.992C211.044 355.242 210.768 355.57 210.57 355.977V362H209.125V353.547H210.492ZM217.609 357.703C217.609 356.385 217.914 355.339 218.523 354.562C219.133 353.781 219.94 353.391 220.945 353.391C221.977 353.391 222.781 353.755 223.359 354.484L223.43 353.547H224.75V361.797C224.75 362.891 224.424 363.753 223.773 364.383C223.128 365.013 222.258 365.328 221.164 365.328C220.555 365.328 219.958 365.198 219.375 364.938C218.792 364.677 218.346 364.32 218.039 363.867L218.789 363C219.409 363.766 220.167 364.148 221.062 364.148C221.766 364.148 222.312 363.951 222.703 363.555C223.099 363.159 223.297 362.602 223.297 361.883V361.156C222.719 361.823 221.93 362.156 220.93 362.156C219.94 362.156 219.138 361.758 218.523 360.961C217.914 360.164 217.609 359.078 217.609 357.703ZM219.062 357.867C219.062 358.82 219.258 359.57 219.648 360.117C220.039 360.659 220.586 360.93 221.289 360.93C222.201 360.93 222.87 360.516 223.297 359.688V355.828C222.854 355.021 222.19 354.617 221.305 354.617C220.602 354.617 220.052 354.891 219.656 355.438C219.26 355.984 219.062 356.794 219.062 357.867ZM231.617 362V354.664H230.281V353.547H231.617V352.68C231.617 351.773 231.859 351.073 232.344 350.578C232.828 350.083 233.513 349.836 234.398 349.836C234.732 349.836 235.062 349.88 235.391 349.969L235.312 351.141C235.068 351.094 234.807 351.07 234.531 351.07C234.062 351.07 233.701 351.208 233.445 351.484C233.19 351.755 233.062 352.146 233.062 352.656V353.547H234.867V354.664H233.062V362H231.617ZM236.086 357.695C236.086 356.867 236.247 356.122 236.57 355.461C236.898 354.799 237.352 354.289 237.93 353.93C238.513 353.57 239.177 353.391 239.922 353.391C241.073 353.391 242.003 353.789 242.711 354.586C243.424 355.383 243.781 356.443 243.781 357.766V357.867C243.781 358.69 243.622 359.43 243.305 360.086C242.992 360.737 242.542 361.245 241.953 361.609C241.37 361.974 240.698 362.156 239.938 362.156C238.792 362.156 237.862 361.758 237.148 360.961C236.44 360.164 236.086 359.109 236.086 357.797V357.695ZM237.539 357.867C237.539 358.805 237.755 359.557 238.188 360.125C238.625 360.693 239.208 360.977 239.938 360.977C240.672 360.977 241.255 360.69 241.688 360.117C242.12 359.539 242.336 358.732 242.336 357.695C242.336 356.768 242.115 356.018 241.672 355.445C241.234 354.867 240.651 354.578 239.922 354.578C239.208 354.578 238.633 354.862 238.195 355.43C237.758 355.997 237.539 356.81 237.539 357.867ZM249.68 354.844C249.461 354.807 249.224 354.789 248.969 354.789C248.021 354.789 247.378 355.193 247.039 356V362H245.594V353.547H247L247.023 354.523C247.497 353.768 248.169 353.391 249.039 353.391C249.32 353.391 249.534 353.427 249.68 353.5V354.844ZM254.633 357.703C254.633 356.406 254.94 355.365 255.555 354.578C256.169 353.786 256.974 353.391 257.969 353.391C258.958 353.391 259.742 353.729 260.32 354.406V350H261.766V362H260.438L260.367 361.094C259.789 361.802 258.984 362.156 257.953 362.156C256.974 362.156 256.174 361.755 255.555 360.953C254.94 360.151 254.633 359.104 254.633 357.812V357.703ZM256.078 357.867C256.078 358.826 256.276 359.576 256.672 360.117C257.068 360.659 257.615 360.93 258.312 360.93C259.229 360.93 259.898 360.518 260.32 359.695V355.812C259.888 355.016 259.224 354.617 258.328 354.617C257.62 354.617 257.068 354.891 256.672 355.438C256.276 355.984 256.078 356.794 256.078 357.867ZM263.633 357.695C263.633 356.867 263.794 356.122 264.117 355.461C264.445 354.799 264.898 354.289 265.477 353.93C266.06 353.57 266.724 353.391 267.469 353.391C268.62 353.391 269.549 353.789 270.258 354.586C270.971 355.383 271.328 356.443 271.328 357.766V357.867C271.328 358.69 271.169 359.43 270.852 360.086C270.539 360.737 270.089 361.245 269.5 361.609C268.917 361.974 268.245 362.156 267.484 362.156C266.339 362.156 265.409 361.758 264.695 360.961C263.987 360.164 263.633 359.109 263.633 357.797V357.695ZM265.086 357.867C265.086 358.805 265.302 359.557 265.734 360.125C266.172 360.693 266.755 360.977 267.484 360.977C268.219 360.977 268.802 360.69 269.234 360.117C269.667 359.539 269.883 358.732 269.883 357.695C269.883 356.768 269.661 356.018 269.219 355.445C268.781 354.867 268.198 354.578 267.469 354.578C266.755 354.578 266.18 354.862 265.742 355.43C265.305 355.997 265.086 356.81 265.086 357.867ZM276.648 362.156C275.503 362.156 274.57 361.781 273.852 361.031C273.133 360.276 272.773 359.268 272.773 358.008V357.742C272.773 356.904 272.932 356.156 273.25 355.5C273.573 354.839 274.021 354.323 274.594 353.953C275.172 353.578 275.797 353.391 276.469 353.391C277.568 353.391 278.422 353.753 279.031 354.477C279.641 355.201 279.945 356.237 279.945 357.586V358.188H274.219C274.24 359.021 274.482 359.695 274.945 360.211C275.414 360.721 276.008 360.977 276.727 360.977C277.237 360.977 277.669 360.872 278.023 360.664C278.378 360.456 278.688 360.18 278.953 359.836L279.836 360.523C279.128 361.612 278.065 362.156 276.648 362.156ZM276.469 354.578C275.885 354.578 275.396 354.792 275 355.219C274.604 355.641 274.359 356.234 274.266 357H278.5V356.891C278.458 356.156 278.26 355.589 277.906 355.188C277.552 354.781 277.073 354.578 276.469 354.578ZM286.547 359.758C286.547 359.367 286.398 359.065 286.102 358.852C285.81 358.633 285.297 358.445 284.562 358.289C283.833 358.133 283.253 357.945 282.82 357.727C282.393 357.508 282.076 357.247 281.867 356.945C281.664 356.643 281.562 356.284 281.562 355.867C281.562 355.174 281.854 354.589 282.438 354.109C283.026 353.63 283.776 353.391 284.688 353.391C285.646 353.391 286.422 353.638 287.016 354.133C287.615 354.628 287.914 355.26 287.914 356.031H286.461C286.461 355.635 286.292 355.294 285.953 355.008C285.62 354.721 285.198 354.578 284.688 354.578C284.161 354.578 283.75 354.693 283.453 354.922C283.156 355.151 283.008 355.451 283.008 355.82C283.008 356.169 283.146 356.432 283.422 356.609C283.698 356.786 284.195 356.956 284.914 357.117C285.638 357.279 286.224 357.471 286.672 357.695C287.12 357.919 287.451 358.19 287.664 358.508C287.883 358.82 287.992 359.203 287.992 359.656C287.992 360.411 287.69 361.018 287.086 361.477C286.482 361.93 285.698 362.156 284.734 362.156C284.057 362.156 283.458 362.036 282.938 361.797C282.417 361.557 282.008 361.224 281.711 360.797C281.419 360.365 281.273 359.898 281.273 359.398H282.719C282.745 359.883 282.938 360.268 283.297 360.555C283.661 360.836 284.141 360.977 284.734 360.977C285.281 360.977 285.719 360.867 286.047 360.648C286.38 360.424 286.547 360.128 286.547 359.758ZM291.242 353.547L291.289 354.609C291.935 353.797 292.779 353.391 293.82 353.391C295.607 353.391 296.508 354.398 296.523 356.414V362H295.078V356.406C295.073 355.797 294.932 355.346 294.656 355.055C294.385 354.763 293.961 354.617 293.383 354.617C292.914 354.617 292.503 354.742 292.148 354.992C291.794 355.242 291.518 355.57 291.32 355.977V362H289.875V353.547H291.242ZM298.18 353.828L297.359 353.266C297.844 352.589 298.094 351.875 298.109 351.125V350H299.539V351.016C299.534 351.536 299.404 352.057 299.148 352.578C298.898 353.094 298.576 353.51 298.18 353.828ZM303.242 351.5V353.547H304.82V354.664H303.242V359.906C303.242 360.245 303.312 360.5 303.453 360.672C303.594 360.839 303.833 360.922 304.172 360.922C304.339 360.922 304.568 360.891 304.859 360.828V362C304.479 362.104 304.109 362.156 303.75 362.156C303.104 362.156 302.617 361.961 302.289 361.57C301.961 361.18 301.797 360.625 301.797 359.906V354.664H300.258V353.547H301.797V351.5H303.242ZM313.992 362.156C312.846 362.156 311.914 361.781 311.195 361.031C310.477 360.276 310.117 359.268 310.117 358.008V357.742C310.117 356.904 310.276 356.156 310.594 355.5C310.917 354.839 311.365 354.323 311.938 353.953C312.516 353.578 313.141 353.391 313.812 353.391C314.911 353.391 315.766 353.753 316.375 354.477C316.984 355.201 317.289 356.237 317.289 357.586V358.188H311.562C311.583 359.021 311.826 359.695 312.289 360.211C312.758 360.721 313.352 360.977 314.07 360.977C314.581 360.977 315.013 360.872 315.367 360.664C315.721 360.456 316.031 360.18 316.297 359.836L317.18 360.523C316.471 361.612 315.409 362.156 313.992 362.156ZM313.812 354.578C313.229 354.578 312.74 354.792 312.344 355.219C311.948 355.641 311.703 356.234 311.609 357H315.844V356.891C315.802 356.156 315.604 355.589 315.25 355.188C314.896 354.781 314.417 354.578 313.812 354.578ZM321.805 356.633L323.68 353.547H325.367L322.602 357.727L325.453 362H323.781L321.828 358.836L319.875 362H318.195L321.047 357.727L318.281 353.547H319.953L321.805 356.633ZM328.477 362H327.031V353.547H328.477V362ZM326.914 351.305C326.914 351.07 326.984 350.872 327.125 350.711C327.271 350.549 327.484 350.469 327.766 350.469C328.047 350.469 328.26 350.549 328.406 350.711C328.552 350.872 328.625 351.07 328.625 351.305C328.625 351.539 328.552 351.734 328.406 351.891C328.26 352.047 328.047 352.125 327.766 352.125C327.484 352.125 327.271 352.047 327.125 351.891C326.984 351.734 326.914 351.539 326.914 351.305ZM335.719 359.758C335.719 359.367 335.57 359.065 335.273 358.852C334.982 358.633 334.469 358.445 333.734 358.289C333.005 358.133 332.424 357.945 331.992 357.727C331.565 357.508 331.247 357.247 331.039 356.945C330.836 356.643 330.734 356.284 330.734 355.867C330.734 355.174 331.026 354.589 331.609 354.109C332.198 353.63 332.948 353.391 333.859 353.391C334.818 353.391 335.594 353.638 336.188 354.133C336.786 354.628 337.086 355.26 337.086 356.031H335.633C335.633 355.635 335.464 355.294 335.125 355.008C334.792 354.721 334.37 354.578 333.859 354.578C333.333 354.578 332.922 354.693 332.625 354.922C332.328 355.151 332.18 355.451 332.18 355.82C332.18 356.169 332.318 356.432 332.594 356.609C332.87 356.786 333.367 356.956 334.086 357.117C334.81 357.279 335.396 357.471 335.844 357.695C336.292 357.919 336.622 358.19 336.836 358.508C337.055 358.82 337.164 359.203 337.164 359.656C337.164 360.411 336.862 361.018 336.258 361.477C335.654 361.93 334.87 362.156 333.906 362.156C333.229 362.156 332.63 362.036 332.109 361.797C331.589 361.557 331.18 361.224 330.883 360.797C330.591 360.365 330.445 359.898 330.445 359.398H331.891C331.917 359.883 332.109 360.268 332.469 360.555C332.833 360.836 333.312 360.977 333.906 360.977C334.453 360.977 334.891 360.867 335.219 360.648C335.552 360.424 335.719 360.128 335.719 359.758ZM341.008 351.5V353.547H342.586V354.664H341.008V359.906C341.008 360.245 341.078 360.5 341.219 360.672C341.359 360.839 341.599 360.922 341.938 360.922C342.104 360.922 342.333 360.891 342.625 360.828V362C342.245 362.104 341.875 362.156 341.516 362.156C340.87 362.156 340.383 361.961 340.055 361.57C339.727 361.18 339.562 360.625 339.562 359.906V354.664H338.023V353.547H339.562V351.5H341.008ZM344.312 361.242C344.312 360.992 344.385 360.784 344.531 360.617C344.682 360.451 344.906 360.367 345.203 360.367C345.5 360.367 345.724 360.451 345.875 360.617C346.031 360.784 346.109 360.992 346.109 361.242C346.109 361.482 346.031 361.682 345.875 361.844C345.724 362.005 345.5 362.086 345.203 362.086C344.906 362.086 344.682 362.005 344.531 361.844C344.385 361.682 344.312 361.482 344.312 361.242Z" fill="#0D444D"/>
</svg>
