<svg width="64" height="64" viewBox="0 0 64 64" fill="none" xmlns="http://www.w3.org/2000/svg">
<path d="M17.92 6.40002C14.195 6.40002 11.02 9.05002 10.44 12.64C10.425 12.725 10.37 12.795 10.36 12.88H10.4C10.355 13.075 10.305 13.255 10.28 13.44C9.89 13.71 9.515 14 9.2 14.32C7.695 15.84 7.06 17.75 6.6 19.32C6.595 19.33 6.605 19.35 6.6 19.36C4.94 24.465 1.965 36.55 1.28 39.32C0.48 40.99 0 42.83 0 44.8C0 51.855 5.745 57.6 12.8 57.6C19.695 57.6 25.305 52.115 25.56 45.28C27.01 46.35 29.11 47.36 32 47.36C34.89 47.36 36.99 46.35 38.44 45.28C38.695 52.115 44.305 57.6 51.2 57.6C58.255 57.6 64 51.855 64 44.8C64 43.355 63.765 41.975 63.32 40.68C63.11 39.84 59.33 24.82 57.68 19.36V19.32C57.16 17.76 56.47 15.85 54.96 14.32C54.585 13.94 54.16 13.59 53.68 13.28C53.655 13.145 53.635 13.02 53.6 12.88H53.64C53.63 12.795 53.575 12.725 53.56 12.64C52.98 9.05002 49.805 6.40002 46.08 6.40002C41.825 6.40002 38.4 9.82502 38.4 14.08C38.4 15.02 38.555 15.93 38.84 16.76C38.245 17.45 37.745 18.075 37.4 18.4C37.255 18.535 37.245 18.53 37.2 18.56C35.745 17.49 33.99 16.76 32.12 16.76C30.255 16.76 28.42 17.43 27 18.56C26.95 18.53 26.945 18.535 26.8 18.4C26.425 18.05 25.86 17.365 25.2 16.6C25.455 15.81 25.6 14.965 25.6 14.08C25.6 9.82502 22.175 6.40002 17.92 6.40002ZM17.92 8.96002C20.835 8.96002 23.04 11.165 23.04 14.08C23.04 14.19 23.005 14.29 23 14.4C21.375 13.005 19.285 11.76 16.52 11.76C15.28 11.76 14.17 11.88 13.2 12.12C13.905 10.26 15.735 8.96002 17.92 8.96002ZM46.08 8.96002C48.245 8.96002 50.04 10.245 50.76 12.08C49.865 11.875 48.88 11.76 47.76 11.76C44.89 11.76 42.67 13.095 41 14.56C40.985 14.395 40.96 14.24 40.96 14.08C40.96 11.165 43.165 8.96002 46.08 8.96002ZM16.52 14.32C19.075 14.32 20.84 15.695 22.32 17.24C22.335 17.885 22.835 18.42 23.48 18.48C24.025 19.115 24.545 19.74 25.08 20.24C25.445 20.58 25.815 20.905 26.4 21.08C26.985 21.255 27.815 21.125 28.32 20.72L28.36 20.68C29.215 19.92 30.785 19.32 32.12 19.32C33.455 19.32 34.86 19.87 35.92 20.72V20.68H35.96C36.455 21.085 37.27 21.255 37.84 21.08C38.425 20.9 38.76 20.58 39.12 20.24C39.66 19.73 40.195 19.09 40.76 18.44C41.205 18.305 41.545 17.935 41.64 17.48C43.185 15.835 45.065 14.32 47.76 14.32C49.445 14.32 50.645 14.575 51.56 15C51.715 15.155 51.91 15.265 52.12 15.32C52.16 15.335 52.2 15.35 52.24 15.36C52.585 15.585 52.895 15.85 53.16 16.12C54.17 17.145 54.74 18.58 55.24 20.08C55.245 20.09 55.235 20.11 55.24 20.12C56.225 23.385 57.865 29.59 59.2 34.8C57.005 33.035 54.225 32 51.2 32C45.4 32 40.485 35.895 38.92 41.2C38.825 41.28 38.745 41.375 38.68 41.48C38.68 41.48 37.03 44.8 32 44.8C26.97 44.8 25.32 41.48 25.32 41.48C25.255 41.36 25.175 41.255 25.08 41.16C23.505 35.875 18.59 32 12.8 32C9.9 32 7.23 32.97 5.08 34.6C6.405 29.4 8.01 23.29 9.04 20.12V20.08C9.475 18.59 9.99 17.145 11 16.12C12.01 15.095 13.56 14.32 16.52 14.32ZM32 32C29.185 32 26.88 34.305 26.88 37.12C26.88 39.935 29.185 42.24 32 42.24C34.815 42.24 37.12 39.935 37.12 37.12C37.12 34.305 34.815 32 32 32ZM12.8 34.56C18.47 34.56 23.04 39.13 23.04 44.8C23.04 50.47 18.47 55.04 12.8 55.04C7.13 55.04 2.56 50.47 2.56 44.8C2.56 44.03 2.64 43.28 2.8 42.56C3.055 42.365 3.225 42.08 3.28 41.76C3.28 41.76 3.615 40.38 3.68 40.12C5.375 36.815 8.82 34.56 12.8 34.56ZM32 34.56C33.43 34.56 34.56 35.69 34.56 37.12C34.56 38.55 33.43 39.68 32 39.68C30.57 39.68 29.44 38.55 29.44 37.12C29.44 35.69 30.57 34.56 32 34.56ZM51.2 34.56C55.66 34.56 59.43 37.395 60.84 41.36C60.845 41.38 60.96 41.8 60.96 41.8C60.995 41.93 61.05 42.05 61.12 42.16C61.345 43 61.44 43.885 61.44 44.8C61.44 50.47 56.87 55.04 51.2 55.04C45.53 55.04 40.96 50.47 40.96 44.8C40.96 39.13 45.53 34.56 51.2 34.56ZM6.28 43.48C6.225 43.49 6.17 43.505 6.12 43.52C5.525 43.655 5.105 44.19 5.12 44.8C5.12 49.055 8.545 52.48 12.8 52.48C13.26 52.485 13.69 52.245 13.925 51.845C14.155 51.445 14.155 50.955 13.925 50.555C13.69 50.155 13.26 49.915 12.8 49.92C9.885 49.92 7.68 47.715 7.68 44.8C7.695 44.43 7.545 44.075 7.28 43.825C7.01 43.57 6.645 43.445 6.28 43.48ZM45.96 43.48C45.905 43.49 45.85 43.505 45.8 43.52C45.205 43.655 44.785 44.19 44.8 44.8C44.8 49.055 48.225 52.48 52.48 52.48C52.94 52.485 53.37 52.245 53.605 51.845C53.835 51.445 53.835 50.955 53.605 50.555C53.37 50.155 52.94 49.915 52.48 49.92C49.565 49.92 47.36 47.715 47.36 44.8C47.375 44.43 47.225 44.075 46.96 43.825C46.69 43.57 46.325 43.445 45.96 43.48Z" fill="#216E7A"/>
<ellipse opacity="0.8" cx="12.8001" cy="44.8" rx="10.24" ry="10.24" fill="#216E7A"/>
<ellipse opacity="0.8" cx="51.2" cy="44.8" rx="10.24" ry="10.24" fill="#216E7A"/>
<path d="M7.38184 44.6108C7.27733 44.0685 6.75299 43.7135 6.21068 43.8181C5.66837 43.9226 5.31346 44.4469 5.41797 44.9892L7.38184 44.6108ZM12.6811 52.1929C13.2295 52.2585 13.7272 51.8672 13.7928 51.3188C13.8584 50.7704 13.4671 50.2727 12.9187 50.2071L12.6811 52.1929ZM5.41797 44.9892C5.85359 47.2498 6.45192 48.9775 7.64142 50.1815C8.85058 51.4053 10.5131 51.9335 12.6811 52.1929L12.9187 50.2071C10.9047 49.9661 9.79541 49.516 9.06414 48.7758C8.31319 48.0158 7.8025 46.7938 7.38184 44.6108L5.41797 44.9892Z" fill="white"/>
<path d="M45.782 44.6108C45.6775 44.0685 45.1531 43.7135 44.6108 43.8181C44.0685 43.9226 43.7136 44.4469 43.8181 44.9892L45.782 44.6108ZM51.0812 52.1929C51.6296 52.2585 52.1273 51.8672 52.193 51.3188C52.2586 50.7704 51.8672 50.2727 51.3189 50.2071L51.0812 52.1929ZM43.8181 44.9892C44.2537 47.2498 44.8521 48.9775 46.0416 50.1815C47.2507 51.4053 48.9133 51.9335 51.0812 52.1929L51.3189 50.2071C49.3049 49.9661 48.1956 49.516 47.4643 48.7758C46.7133 48.0158 46.2026 46.7938 45.782 44.6108L43.8181 44.9892Z" fill="white"/>
</svg>
